<?xml version="1.0" encoding="UTF-8" standalone="no"?>
<!-- Created with Inkscape (http://www.inkscape.org/) -->

<svg
   xmlns:dc="http://purl.org/dc/elements/1.1/"
   xmlns:cc="http://creativecommons.org/ns#"
   xmlns:rdf="http://www.w3.org/1999/02/22-rdf-syntax-ns#"
   xmlns:svg="http://www.w3.org/2000/svg"
   xmlns="http://www.w3.org/2000/svg"
   xmlns:xlink="http://www.w3.org/1999/xlink"
   xmlns:sodipodi="http://sodipodi.sourceforge.net/DTD/sodipodi-0.dtd"
   xmlns:inkscape="http://www.inkscape.org/namespaces/inkscape"
   width="256px"
   height="256px"
   viewBox="0 0 256 256"
   id="SVGRoot"
   version="1.1"
   inkscape:version="0.91 r13725"
   sodipodi:docname="caxton.svg"
   inkscape:export-filename="/Users/Sam/Projects/Logos/caxton.png"
   inkscape:export-xdpi="96"
   inkscape:export-ydpi="96">
  <sodipodi:namedview
     id="base"
     pagecolor="#4f4f4f"
     bordercolor="#666666"
     borderopacity="1.0"
     inkscape:pageopacity="0"
     inkscape:pageshadow="2"
     inkscape:zoom="1"
     inkscape:cx="81.513945"
     inkscape:cy="124.22958"
     inkscape:document-units="px"
     inkscape:current-layer="layer1"
     showgrid="false"
     inkscape:window-width="1920"
     inkscape:window-height="1036"
     inkscape:window-x="0"
     inkscape:window-y="0"
     inkscape:window-maximized="1"
     inkscape:grid-bbox="true"
     inkscape:snap-global="true"
     inkscape:snap-bbox="true"
     inkscape:bbox-paths="true"
     inkscape:snap-bbox-edge-midpoints="true"
     inkscape:snap-bbox-midpoints="true"
     inkscape:snap-intersection-paths="true"
     inkscape:snap-smooth-nodes="true"
     inkscape:snap-midpoints="true"
     inkscape:snap-center="true"
     inkscape:object-paths="true"
     inkscape:object-nodes="true">
    <inkscape:grid
       type="xygrid"
       id="grid7500"
       empspacing="4" />
  </sodipodi:namedview>
  <defs
     id="defs6943">
    <linearGradient
       inkscape:collect="always"
       id="linearGradient4590">
      <stop
         style="stop-color:#1b3540;stop-opacity:1;"
         offset="0"
         id="stop4592" />
      <stop
         style="stop-color:#385b6a;stop-opacity:1"
         offset="1"
         id="stop4594" />
    </linearGradient>
    <clipPath
       clipPathUnits="userSpaceOnUse"
       id="clipPath4642">
      <path
         inkscape:connector-curvature="0"
         id="path4644"
         d="M 195.83984,60.160156 A 96,96 0 0 1 224,128 96,96 0 0 1 195.83984,195.83984 L 161.93945,161.93945 A 47.868271,48.000004 0 0 0 176,128 47.868271,48.000004 0 0 0 161.94141,94.058594 l 33.89843,-33.898438 z"
         style="opacity:1;fill:url(#linearGradient4646);fill-opacity:1;stroke:none;stroke-width:2;stroke-linecap:round;stroke-linejoin:round;stroke-miterlimit:4;stroke-dasharray:none;stroke-dashoffset:0;stroke-opacity:1" />
    </clipPath>
    <linearGradient
       inkscape:collect="always"
       xlink:href="#linearGradient4590"
       id="linearGradient4646"
       gradientUnits="userSpaceOnUse"
       x1="208"
       y1="168"
       x2="192"
       y2="80" />
  </defs>
  <metadata
     id="metadata6946">
    <rdf:RDF>
      <cc:Work
         rdf:about="">
        <dc:format>image/svg+xml</dc:format>
        <dc:type
           rdf:resource="http://purl.org/dc/dcmitype/StillImage" />
        <dc:title />
      </cc:Work>
    </rdf:RDF>
  </metadata>
  <g
     id="layer1"
     inkscape:groupmode="layer"
     inkscape:label="Layer 1">
    <path
       style="opacity:1;fill:#ffffff;fill-opacity:1;stroke:none;stroke-width:2;stroke-linecap:round;stroke-linejoin:round;stroke-miterlimit:4;stroke-dasharray:none;stroke-dashoffset:0;stroke-opacity:1"
       d="M 127.9818,33.991202 C 91.805417,33.50777 56.812397,56.203712 42.283517,89.29703 c -15.42748,33.21088 -8.88326,75.1029 16.11143,101.90705 23.68305,26.70482 63.285943,37.5474 97.257153,26.57064 13.90993,-4.31143 26.77492,-11.92384 37.27306,-22.01399 -4.69857,-4.69857 -9.39714,-9.39713 -14.09571,-14.0957 -23.1782,22.72187 -61.72919,26.9385 -89.206873,9.60743 -27.4613,-16.10154 -41.73627,-51.05176 -33.30765,-81.76711 7.71031,-31.924621 38.79923,-56.099897 71.670773,-55.514148 18.72107,-0.05215 37.3108,7.39534 50.84375,20.326172 4.69857,-4.698568 9.39714,-9.397135 14.09571,-14.095703 C 175.7007,43.572858 151.95049,33.922111 127.9818,33.991202 Z m 0,24 c -31.094473,-0.56668 -60.524673,22.284464 -67.795803,52.498288 -7.9579,29.05558 5.492,62.14466 31.48968,77.37309 25.968613,16.36237 62.373753,12.39678 84.288543,-9.06279 -4.76953,-4.76953 -9.53906,-9.53906 -14.30859,-14.30859 -16.15053,15.74284 -43.23332,17.99649 -61.675893,4.95407 -20.03832,-12.98857 -27.82636,-41.12442 -17.33478,-62.57122 9.63716,-21.809306 36.221623,-34.09822 59.019473,-26.866999 7.43903,2.200964 14.32774,6.189233 19.99705,11.478292 4.76758,-4.767578 9.53516,-9.535157 14.30274,-14.302735 C 163.17263,64.999738 145.65858,57.94198 127.9818,57.991202 Z"
       id="path4662"
       inkscape:connector-curvature="0" />
  </g>
</svg>
