<?xml version="1.0" encoding="UTF-8" standalone="no"?>
<!-- Generated by IcoMoon.io -->

<svg
   xmlns:dc="http://purl.org/dc/elements/1.1/"
   xmlns:cc="http://creativecommons.org/ns#"
   xmlns:rdf="http://www.w3.org/1999/02/22-rdf-syntax-ns#"
   xmlns:svg="http://www.w3.org/2000/svg"
   xmlns="http://www.w3.org/2000/svg"
   xmlns:sodipodi="http://sodipodi.sourceforge.net/DTD/sodipodi-0.dtd"
   xmlns:inkscape="http://www.inkscape.org/namespaces/inkscape"
   version="1.1"
   width="28"
   height="28"
   viewBox="0 0 28 28"
   id="svg2"
   inkscape:version="0.91 r13725"
   sodipodi:docname="logo.svg"
   inkscape:export-filename="/home/brian/dev/web/uappexplorer/images/logo-200x200.png"
   inkscape:export-xdpi="642.85999"
   inkscape:export-ydpi="642.85999">
  <metadata
     id="metadata10">
    <rdf:RDF>
      <cc:Work
         rdf:about="">
        <dc:format>image/svg+xml</dc:format>
        <dc:type
           rdf:resource="http://purl.org/dc/dcmitype/StillImage" />
      </cc:Work>
    </rdf:RDF>
  </metadata>
  <defs
     id="defs8" />
  <sodipodi:namedview
     pagecolor="#ffffff"
     bordercolor="#666666"
     borderopacity="1"
     objecttolerance="10"
     gridtolerance="10"
     guidetolerance="10"
     inkscape:pageopacity="0"
     inkscape:pageshadow="2"
     inkscape:window-width="1920"
     inkscape:window-height="1009"
     id="namedview6"
     showgrid="false"
     inkscape:zoom="23.8396"
     inkscape:cx="13.153348"
     inkscape:cy="12.972195"
     inkscape:window-x="0"
     inkscape:window-y="0"
     inkscape:window-maximized="1"
     inkscape:current-layer="svg2" />
  <circle
     style="fill:#ffffff;fill-opacity:1;stroke:none;stroke-width:32;stroke-miterlimit:4;stroke-dasharray:none;stroke-opacity:1"
     id="path4137"
     cx="14"
     cy="14"
     r="11.912951" />
  <path
     d="m 16.07445,17.11012 -4.146827,-2.073413 4.146827,-2.073413 0,4.146826 z m -6.2202396,-9.5729496 0,8.7798696 8.2936536,4.146827 0,-8.779869 z M 5.1890294,14 q 0,-2.396866 1.182883,-4.4225908 1.182882,-2.0257249 3.20757,-3.2075705 2.0246876,-1.1818456 4.4225906,-1.1828823 2.397903,-0.00104 4.422592,1.1828823 2.024688,1.1839191 3.20757,3.2075705 Q 22.815117,11.601061 22.815117,14 q 0,2.39894 -1.182882,4.422591 -1.182882,2.023652 -3.20757,3.207571 -2.024689,1.183919 -4.422592,1.182882 -2.397903,-0.001 -4.4225906,-1.182882 -2.024688,-1.181846 -3.20757,-3.207571 Q 5.1890294,16.396866 5.1890294,14 Z m -3.628473,0 q 0,3.385884 1.668061,6.244085 1.668061,2.8582 4.527298,4.527298 Q 10.615152,26.440481 14,26.439444 q 3.384847,-0.001 6.244085,-1.668061 2.859237,-1.667024 4.527298,-4.527298 Q 26.439444,17.383811 26.439444,14 q 0,-3.38381 -1.668061,-6.2440844 Q 23.103322,4.8956418 20.244085,3.2286174 17.384847,1.5615931 14,1.5605564 10.615152,1.5595164 7.7559154,3.2286174 4.8966784,4.8977152 3.2286174,7.7559156 1.5605564,10.614116 1.5605564,14 Z"
     id="path4"
     inkscape:connector-curvature="0"
     style="fill:#dd4814;fill-opacity:1" />
</svg>
