<?xml version="1.0" encoding="UTF-8" standalone="no"?>
<!-- Generator: Adobe Illustrator 14.0.0, SVG Export Plug-In . SVG Version: 6.00 Build 43363)  -->

<svg
   xmlns:dc="http://purl.org/dc/elements/1.1/"
   xmlns:cc="http://creativecommons.org/ns#"
   xmlns:rdf="http://www.w3.org/1999/02/22-rdf-syntax-ns#"
   xmlns:svg="http://www.w3.org/2000/svg"
   xmlns="http://www.w3.org/2000/svg"
   xmlns:sodipodi="http://sodipodi.sourceforge.net/DTD/sodipodi-0.dtd"
   xmlns:inkscape="http://www.inkscape.org/namespaces/inkscape"
   version="1.1"
   id="Layer_1"
   x="0px"
   y="0px"
   width="341.15701"
   height="341.15201"
   viewBox="0 0 341.15701 341.15201"
   enable-background="new 0 0 648.143 538"
   xml:space="preserve"
   inkscape:version="0.48.4 r9939"
   sodipodi:docname="ubuntu-logo.svg"><metadata
     id="metadata23"><rdf:RDF><cc:Work
         rdf:about=""><dc:format>image/svg+xml</dc:format><dc:type
           rdf:resource="http://purl.org/dc/dcmitype/StillImage" /></cc:Work></rdf:RDF></metadata><defs
     id="defs21" /><sodipodi:namedview
     pagecolor="#ffffff"
     bordercolor="#666666"
     borderopacity="1"
     objecttolerance="10"
     gridtolerance="10"
     guidetolerance="10"
     inkscape:pageopacity="0"
     inkscape:pageshadow="2"
     inkscape:window-width="1918"
     inkscape:window-height="1023"
     id="namedview19"
     showgrid="false"
     fit-margin-top="0.5"
     fit-margin-left="0.5"
     fit-margin-right="0.5"
     fit-margin-bottom="0.5"
     inkscape:zoom="0.43866171"
     inkscape:cx="164.2115"
     inkscape:cy="71.65199"
     inkscape:window-x="0"
     inkscape:window-y="0"
     inkscape:window-maximized="1"
     inkscape:current-layer="Layer_1" /><path
     d="m 340.657,170.578 c 0,93.926 -76.146,170.074 -170.078,170.074 C 76.644997,340.652 0.49999756,264.504 0.49999756,170.578 0.49999756,76.646 76.645997,0.5 170.579,0.5 c 93.933,0 170.078,76.146 170.078,170.078 z"
     id="path3"
     inkscape:connector-curvature="0"
     style="fill:#dd4814" /><path
     d="m 54.930997,147.866 c -12.547,0 -22.712,10.166 -22.712,22.712 0,12.54 10.165,22.705 22.712,22.705 12.54,0 22.705,-10.165 22.705,-22.705 0,-12.546 -10.165,-22.712 -22.705,-22.712 z M 217.059,251.07 c -10.861,6.273 -14.585,20.153 -8.311,31.008 6.266,10.861 20.146,14.584 31.007,8.311 10.86,-6.266 14.584,-20.146 8.311,-31.008 -6.266,-10.854 -20.154,-14.577 -31.007,-8.311 z M 104.254,170.578 c 0,-22.44 11.146,-42.265 28.201,-54.27 L 115.854,88.503 c -19.867003,13.28 -34.649003,33.573 -40.792003,57.34 7.168,5.849 11.756,14.753 11.756,24.734 0,9.975 -4.588,18.879 -11.756,24.728 6.135,23.774 20.917,44.068 40.792003,57.348 l 16.601,-27.812 C 115.4,212.843 104.254,193.019 104.254,170.578 z m 66.325,-66.332 c 34.65,0 63.078,26.567 66.062,60.448 l 32.356,-0.477 c -1.592,-25.013 -12.519,-47.468 -29.309,-63.98 -8.634,3.262 -18.607,2.763 -27.227,-2.206 -8.635,-4.983 -14.049,-13.389 -15.529,-22.514 -8.392,-2.316 -17.224,-3.584 -26.355,-3.584 -15.697,0 -30.538,3.687 -43.715,10.209 l 15.778,28.274 c 8.488,-3.95 17.957,-6.17 27.939,-6.17 z m 0,132.657 c -9.982,0 -19.451,-2.221 -27.938,-6.17 l -15.778,28.273 c 13.177,6.53 28.018,10.218 43.716,10.218 9.131,0 17.963,-1.269 26.354,-3.592 1.48,-9.125 6.896,-17.523 15.529,-22.515 8.626,-4.977 18.593,-5.467 27.227,-2.205 16.79,-16.512 27.717,-38.967 29.309,-63.98 l -32.364,-0.477 c -2.977,33.89 -31.404,60.448 -66.055,60.448 z M 217.051,90.072 c 10.861,6.272 24.742,2.557 31.008,-8.304 6.273,-10.861 2.558,-24.742 -8.304,-31.016 -10.861,-6.266 -24.741,-2.543 -31.016,8.318 -6.265,10.855 -2.542,24.736 8.312,31.002 z"
     id="path5"
     inkscape:connector-curvature="0"
     style="fill:#ffffff" /></svg>